# xmcd CD database file
#
# Track frame offsets:
#	182
#	15832
#	31025
#	49067
#	66717
#	84342
#	100607
#	113807
#	131945
#	147690
#	161765
#
# Disc length: 2369 seconds
#
# Revision: 0
# Processed by: cddbd v1.4PL0 Copyright (c) Steve Scherf et al.
# Submitted via: CdAid 2001.05.15.01
#
DISCID=92093f0b
DTITLE=The Jackson Five - the first recordings [CD1)
DYEAR=1900
DGENRE=
TTITLE0=we don´t have to be over 21
TTITLE1=michael the lover
TTITLE2=stormy monday
TTITLE3=saturday night at the movies
TTITLE4=the tracks of my tears
TTITLE5=a change is gonna come
TTITLE6=loneley hearts
TTITLE7=boys and girls, we are the Jackson Five
TTITLE8=my girl
TTITLE9=soul jerk
TTITLE10=under the boardwalk
EXTD=Double Goldies - 2 CD
EXTT0=
EXTT1=
EXTT2=
EXTT3=
EXTT4=
EXTT5=
EXTT6=
EXTT7=
EXTT8=
EXTT9=
EXTT10=
PLAYORDER=
